<?xml version="1.0" standalone="no"?>
<!DOCTYPE svg PUBLIC "-//W3C//DTD SVG 20010904//EN"
 "http://www.w3.org/TR/2001/REC-SVG-20010904/DTD/svg10.dtd">
<svg version="1.0" xmlns="http://www.w3.org/2000/svg"
 width="512.000000pt" height="512.000000pt" viewBox="0 0 512.000000 512.000000"
 preserveAspectRatio="xMidYMid meet">

<g transform="translate(0.000000,512.000000) scale(0.100000,-0.100000)"
fill="#000000" stroke="none">
<path d="M0 4100 l0 -168 98 -7 c154 -10 279 -25 387 -46 115 -23 295 -71 295
-79 0 -3 -36 -25 -79 -49 -539 -298 -809 -926 -656 -1527 115 -451 449 -809
897 -959 136 -45 264 -65 423 -65 198 0 366 33 539 106 44 19 81 34 82 34 1 0
130 -184 286 -410 155 -225 285 -410 288 -410 3 0 133 185 288 410 156 226
285 410 287 410 2 0 39 -15 83 -34 169 -73 339 -106 537 -106 158 0 287 20
422 65 684 229 1071 926 901 1625 -90 369 -345 696 -682 873 -38 20 -62 39
-55 41 185 62 421 104 682 121 l97 7 0 166 0 167 -97 -3 c-301 -8 -657 -80
-934 -187 -258 -100 -580 -286 -799 -461 -116 -93 -340 -318 -432 -434 -89
-112 -187 -254 -248 -362 -24 -43 -46 -78 -49 -78 -4 0 -39 55 -79 123 -233
393 -582 740 -987 984 -403 243 -880 392 -1310 409 -66 3 -135 7 -152 9 l-33
4 0 -169z m1396 -591 c292 -190 539 -434 734 -726 105 -156 230 -399 230 -447
0 -41 -37 -152 -80 -236 -190 -377 -580 -594 -1007 -559 -424 35 -792 348
-899 764 -145 570 207 1135 786 1259 110 24 116 23 236 -55z m2621 41 c466
-120 790 -566 760 -1048 -32 -507 -432 -920 -930 -961 -427 -35 -818 182
-1007 559 -43 85 -80 195 -80 237 0 22 27 85 78 186 132 258 263 439 467 643
139 139 265 242 420 344 l110 71 55 -6 c30 -4 87 -15 127 -25z m-1457 -1710
c5 0 10 7 12 15 2 9 25 -18 56 -65 29 -44 92 -121 138 -170 l85 -89 -142 -206
c-78 -113 -145 -205 -149 -205 -4 0 -71 92 -149 205 l-142 206 85 89 c46 49
109 126 138 170 31 47 54 74 56 65 2 -8 7 -15 12 -15z"/>
<path d="M1200 3220 c-126 -33 -214 -84 -311 -180 -70 -69 -94 -101 -128 -170
-55 -114 -74 -194 -74 -310 0 -116 19 -197 75 -310 56 -114 177 -238 288 -293
205 -102 426 -102 630 0 55 28 98 60 161 123 74 73 93 99 132 180 57 121 71
181 71 305 -2 191 -63 336 -203 475 -69 69 -103 94 -171 127 -151 73 -317 92
-470 53z m287 -342 c78 -29 173 -122 196 -193 27 -82 31 -135 13 -203 -65
-255 -367 -348 -559 -172 -150 137 -150 363 0 500 97 88 228 114 350 68z"/>
<path d="M3592 3221 c-125 -31 -215 -83 -312 -180 -143 -142 -203 -286 -203
-481 0 -126 18 -203 76 -315 56 -109 181 -235 287 -288 204 -102 425 -102 630
0 111 55 232 179 288 293 56 113 75 194 75 310 0 116 -19 196 -74 310 -56 113
-178 237 -289 293 -151 75 -323 96 -478 58z m283 -342 c32 -12 77 -41 108 -69
150 -137 150 -363 0 -500 -139 -128 -333 -122 -469 14 -72 72 -98 135 -98 236
0 101 26 164 98 236 42 42 78 67 116 82 74 28 171 29 245 1z"/>
</g>
</svg>
