<?xml version="1.0" standalone="no"?>
<!DOCTYPE svg PUBLIC "-//W3C//DTD SVG 20010904//EN"
 "http://www.w3.org/TR/2001/REC-SVG-20010904/DTD/svg10.dtd">
<svg version="1.0" xmlns="http://www.w3.org/2000/svg"
 width="128.000000pt" height="128.000000pt" viewBox="0 0 128.000000 128.000000"
 preserveAspectRatio="xMidYMid meet">

<g transform="translate(0.000000,128.000000) scale(0.100000,-0.100000)"
fill="#000000" stroke="none">
<path d="M280 773 c0 -18 5 -33 10 -33 13 0 13 30 0 50 -7 11 -10 7 -10 -17z"/>
<path d="M167 763 c-6 -12 20 -56 27 -45 3 6 0 17 -8 25 -8 8 -12 17 -9 21 4
3 4 6 0 6 -3 0 -8 -3 -10 -7z"/>
<path d="M237 723 c-2 -4 0 -19 6 -33 l10 -25 5 24 c4 24 -12 50 -21 34z"/>
<path d="M374 326 c-10 -8 -16 -17 -13 -20 3 -3 14 3 24 14 21 23 17 26 -11 6z"/>
<path d="M550 320 c-12 -8 -10 -10 11 -10 14 0 31 -6 39 -12 8 -7 6 -3 -4 10
-21 25 -25 26 -46 12z"/>
<path d="M550 280 c-7 -14 -7 -20 0 -20 5 0 10 -9 10 -20 0 -28 18 -25 26 5
12 48 -15 74 -36 35z"/>
<path d="M336 235 c-3 -8 -2 -15 3 -15 5 0 20 -12 35 -27 16 -16 24 -20 20
-10 -3 9 -1 17 4 17 6 0 0 11 -14 25 -29 29 -40 31 -48 10z"/>
<path d="M550 195 c15 -18 -1 -20 -18 -3 -9 9 -12 9 -12 1 0 -20 21 -26 46
-12 31 16 31 29 -2 29 -22 0 -25 -2 -14 -15z"/>
<path d="M410 160 c-8 -5 -12 -11 -9 -14 2 -3 11 -1 19 4 8 5 12 11 9 14 -2 3
-11 1 -19 -4z"/>
</g>
</svg>
